<?xml version="1.0" encoding="iso-8859-1"?>
<!-- Generator: Adobe Illustrator 19.0.0, SVG Export Plug-In . SVG Version: 6.00 Build 0)  -->
<svg version="1.1" id="Capa_1" xmlns="http://www.w3.org/2000/svg" xmlns:xlink="http://www.w3.org/1999/xlink" x="0px" y="0px"
	 viewBox="0 0 472 472" style="enable-background:new 0 0 472 472;" xml:space="preserve">
<path style="fill:#F7D04F;" d="M270.443,200c4.522,12.46-1.912,26.226-14.372,30.748c-12.46,4.522-26.226-1.912-30.748-14.372
	c-1.92-5.29-1.92-11.086,0-16.376h-57.44v-54.24c-9.809,8.915-24.987,8.191-33.903-1.617c-8.915-9.809-8.191-24.987,1.617-33.903
	c9.154-8.32,23.131-8.32,32.285,0V40C83.935,40.13,15.988,108.288,16.118,192.235c0.091,58.988,34.303,112.597,87.765,137.525V400
	h128v-70.24c51.099-23.621,84.959-73.548,88-129.76L270.443,200z"/>
<path style="fill:#EF9F35;" d="M303.883,0v70.24c-9.809-8.915-24.987-8.191-33.903,1.617c-8.915,9.809-8.191,24.987,1.617,33.903
	c9.154,8.32,23.132,8.32,32.285,0V160h57.44c-4.522,12.46,1.912,26.226,14.372,30.748c12.46,4.522,26.226-1.912,30.748-14.372
	c1.92-5.29,1.92-11.086,0-16.376h49.44c0-2.64,0-5.28,0-8C455.883,68.053,387.83,0,303.883,0z"/>
<g>
	<path style="fill:#F9F6ED;" d="M199.883,240c-13.255,0-24,10.745-24,24v8h-16v-8c0-13.255-10.745-24-24-24s-24,10.745-24,24
		s10.745,24,24,24h8v120h48V288h8c13.255,0,24-10.745,24-24S213.137,240,199.883,240L199.883,240z M135.883,272
		c-4.418,0-8-3.582-8-8s3.582-8,8-8s8,3.582,8,8v8H135.883z M175.883,392h-16V288h16V392z M199.883,272h-8v-8c0-4.418,3.582-8,8-8
		s8,3.582,8,8S204.301,272,199.883,272z"/>
	<path style="fill:#F9F6ED;" d="M363.643,57.2c-7.054-4.42-14.564-8.068-22.4-10.88l5.28-15.04c8.974,3.154,17.562,7.314,25.6,12.4
		L363.643,57.2z"/>
	<path style="fill:#F9F6ED;" d="M411.883,122.16c-5.614-20.067-16.693-38.181-32-52.32l10.88-11.68
		c17.456,16.114,30.063,36.784,36.4,59.68L411.883,122.16z"/>
</g>
<path style="fill:#1895AA;" d="M255.883,416c0-13.255-10.745-24-24-24h-128c-13.255,0-24,10.745-24,24
	c0.035,5.92,2.258,11.619,6.24,16c-3.982,4.381-6.205,10.08-6.24,16c0,13.255,10.745,24,24,24h128c13.255,0,24-10.745,24-24
	c-0.035-5.92-2.258-11.619-6.24-16C253.625,427.619,255.847,421.92,255.883,416z"/>
<g>
</g>
<g>
</g>
<g>
</g>
<g>
</g>
<g>
</g>
<g>
</g>
<g>
</g>
<g>
</g>
<g>
</g>
<g>
</g>
<g>
</g>
<g>
</g>
<g>
</g>
<g>
</g>
<g>
</g>
</svg>
